<?xml version="1.0" encoding="UTF-8"?>
<!DOCTYPE svg PUBLIC "-//W3C//DTD SVG 1.1//EN" "http://www.w3.org/Graphics/SVG/1.1/DTD/svg11.dtd">
<!-- Creator: CorelDRAW X8 -->
<svg xmlns="http://www.w3.org/2000/svg" xml:space="preserve" width="1000px" height="1000px" version="1.1" style="shape-rendering:geometricPrecision; text-rendering:geometricPrecision; image-rendering:optimizeQuality; fill-rule:evenodd; clip-rule:evenodd"
viewBox="0 0 10000 10000"
 xmlns:xlink="http://www.w3.org/1999/xlink">
 <defs>
  <style type="text/css">
   <![CDATA[
    .str2 {stroke:#000082;stroke-width:20.8347}
    .str4 {stroke:#000082;stroke-width:20.8347}
    .str3 {stroke:#B40000;stroke-width:29.9882}
    .str6 {stroke:#646464;stroke-width:29.9882;stroke-linecap:round}
    .str1 {stroke:white;stroke-width:29.9882;stroke-linecap:round}
    .str5 {stroke:#646464;stroke-width:29.9882;stroke-linecap:round;stroke-linejoin:round}
    .str0 {stroke:white;stroke-width:29.9882;stroke-linecap:round;stroke-linejoin:round}
    .fil8 {fill:none}
    .fil7 {fill:#000082}
    .fil1 {fill:blue}
    .fil4 {fill:#4F4FFF}
    .fil2 {fill:#D90000}
    .fil0 {fill:#E6E6E6}
    .fil3 {fill:#FF1212}
    .fil5 {fill:white}
    .fil6 {fill:white;fill-rule:nonzero}
   ]]>
  </style>
 </defs>
 <g id="Слой_x0020_1">
  <metadata id="CorelCorpID_0Corel-Layer"/>
  <g id="_2173774902976">
   <path class="fil0" d="M415 100l-1 0c-173,0 -314,167 -314,371l0 150c0,-204 141,-370 314,-370l1 0 0 -151z"/>
   <path class="fil1" d="M415 249l-1 0c-173,0 -314,167 -314,371l0 151c0,-204 141,-371 314,-371l1 0 0 -151z"/>
   <path class="fil2" d="M415 396c-173,-1 -314,167 -314,370l0 151c0,-204 141,-371 314,-371l0 -150z"/>
   <rect class="fil3" x="415" y="397" width="292" height="150"/>
   <rect class="fil4" x="415" y="247" width="292" height="150"/>
   <rect class="fil5" x="415" y="100" width="292" height="150"/>
   <path class="fil6" d="M411 885c1,-7 3,-14 5,-22 2,-7 5,-16 7,-24 3,-9 6,-18 9,-26 3,-9 7,-18 10,-26 3,-8 7,-16 10,-24 4,-7 7,-14 10,-20l27 0c3,6 6,13 10,20 3,8 7,16 10,24 3,8 6,17 10,26 3,8 6,17 9,26 2,8 5,17 7,24 2,8 4,15 5,22l-18 0c-1,-4 -2,-9 -3,-14 -2,-5 -3,-10 -5,-16 -2,-5 -4,-11 -6,-18 -1,-6 -3,-12 -6,-18l-47 0c0,0 0,-1 1,-2 0,-1 0,-2 1,-3 0,-1 1,-2 1,-4 1,-1 1,-2 2,-4 0,-1 0,-2 1,-3 0,-1 0,-1 0,-1l35 0c-3,-8 -6,-15 -9,-22 -3,-7 -6,-14 -9,-21l-5 0c-3,7 -6,14 -9,21 -3,7 -6,15 -9,22 -3,8 -6,16 -9,23 -2,8 -5,15 -7,23 -3,7 -4,14 -6,20 -2,6 -3,12 -4,17l-18 0z"/>
   <polygon id="1" class="fil6" points="555,885 555,743 573,743 573,802 644,802 644,743 662,743 662,885 644,885 644,819 573,819 573,885 "/>
   <path id="2" class="fil6" d="M685 814c0,-10 1,-20 3,-29 2,-8 6,-16 11,-23 5,-7 11,-12 19,-16 8,-3 18,-5 29,-5 12,0 22,2 30,5 8,4 14,9 19,16 5,7 8,15 11,23 2,9 3,19 3,29 0,10 -1,20 -3,29 -3,8 -6,16 -11,23 -5,6 -11,12 -19,15 -8,4 -18,6 -30,6 -11,0 -21,-2 -29,-6 -8,-3 -14,-9 -19,-15 -5,-7 -9,-15 -11,-23 -2,-9 -3,-19 -3,-29zm19 0c0,9 0,18 2,25 2,7 4,13 8,18 3,5 8,8 13,11 6,2 13,4 20,4 8,0 15,-2 20,-4 6,-3 11,-6 14,-11 4,-5 6,-11 8,-18 2,-7 2,-16 2,-25 0,-9 0,-18 -2,-25 -2,-7 -4,-13 -8,-18 -3,-5 -8,-9 -14,-11 -5,-3 -12,-4 -20,-4 -7,0 -14,1 -20,4 -5,2 -10,6 -13,11 -4,5 -6,11 -8,18 -2,7 -2,16 -2,25z"/>
   <path id="3" class="fil6" d="M868 868l15 0c3,-4 6,-9 8,-15 3,-6 5,-15 7,-25 2,-10 4,-22 5,-36 1,-14 1,-30 1,-49l84 0 0 125 17 0 0 39 -18 0 0 -22 -101 0 0 22 -18 0 0 -39zm36 0l66 0 0 -109 -47 0c-1,27 -3,49 -6,67 -3,18 -8,32 -13,42z"/>
   <polygon id="4" class="fil6" points="1021,885 1021,743 1125,743 1125,885 1107,885 1107,759 1039,759 1039,885 "/>
   <path id="5" class="fil6" d="M1148 814c0,-10 1,-20 4,-29 2,-8 5,-16 10,-23 5,-7 12,-12 20,-16 8,-3 17,-5 29,-5 11,0 21,2 29,5 8,4 14,9 19,16 5,7 9,15 11,23 2,9 3,19 3,29 0,10 -1,20 -3,29 -2,8 -6,16 -11,23 -5,6 -11,12 -19,15 -8,4 -18,6 -29,6 -12,0 -21,-2 -29,-6 -8,-3 -15,-9 -20,-15 -5,-7 -8,-15 -10,-23 -3,-9 -4,-19 -4,-29zm19 0c0,9 1,18 2,25 2,7 5,13 8,18 4,5 8,8 14,11 5,2 12,4 20,4 8,0 14,-2 20,-4 5,-3 10,-6 13,-11 4,-5 7,-11 8,-18 2,-7 3,-16 3,-25 0,-9 -1,-18 -3,-25 -1,-7 -4,-13 -8,-18 -3,-5 -8,-9 -13,-11 -6,-3 -12,-4 -20,-4 -8,0 -15,1 -20,4 -6,2 -10,6 -14,11 -3,5 -6,11 -8,18 -1,7 -2,16 -2,25z"/>
   <path class="fil6" d="M411 1168l34 55 33 0 -30 -55c2,-4 4,-9 7,-14 3,-4 5,-9 8,-14 3,-5 6,-10 8,-15 3,-5 5,-9 7,-13l-33 0 -34 56zm55 0l35 55 33 0 -31 -55c2,-4 5,-9 8,-14 2,-4 5,-9 8,-14 3,-5 5,-10 8,-15 2,-5 5,-9 7,-13l-33 0 -35 56z"/>
   <path id="1" class="fil6" d="M546 1143c0,-13 1,-25 5,-36 3,-12 8,-21 15,-29 6,-8 15,-14 25,-19 11,-4 23,-7 38,-7 9,0 18,1 26,2 8,1 16,2 22,3l0 34c-4,-1 -8,-3 -12,-3 -4,-1 -8,-2 -12,-3 -4,0 -8,-1 -12,-1 -4,0 -8,0 -12,0 -16,0 -28,4 -36,14 -8,10 -12,25 -12,45 0,11 1,20 3,28 2,7 5,13 9,18 4,5 10,8 16,10 6,3 12,4 20,4 7,0 14,-1 22,-2 8,-1 16,-2 26,-5l0 33c-6,1 -13,3 -21,4 -7,0 -16,1 -27,1 -14,0 -26,-2 -37,-6 -11,-4 -19,-10 -26,-18 -7,-7 -12,-17 -15,-28 -4,-11 -5,-24 -5,-39z"/>
   <polygon id="2" class="fil6" points="706,1231 706,1055 840,1055 840,1231 806,1231 806,1086 741,1086 741,1231 "/>
   <path id="3" class="fil6" d="M868 1167c0,-11 0,-22 1,-33 0,-10 1,-20 3,-29 3,-9 6,-17 10,-24 5,-6 11,-12 19,-16 3,-3 7,-4 10,-5 4,-2 7,-2 11,-3 3,-1 6,-1 10,-1 4,0 8,-1 12,-1 4,0 9,-1 14,-1 5,-1 10,-2 16,-3l0 28c-5,2 -10,3 -15,3 -5,1 -10,1 -15,1 -5,1 -10,1 -14,2 -5,1 -8,2 -12,4 -3,2 -5,4 -8,7 -2,3 -3,6 -4,10 0,1 0,2 0,3 0,0 0,1 0,1 2,-1 6,-3 11,-4 5,-2 10,-2 15,-2 4,0 8,0 13,1 4,1 8,2 12,4 4,2 7,5 11,8 3,3 6,7 9,12 3,5 5,11 6,17 2,7 3,14 3,23 0,9 -2,17 -4,25 -2,8 -5,15 -10,21 -5,6 -11,11 -18,14 -8,3 -17,5 -27,5 -11,0 -20,-2 -27,-5 -8,-4 -14,-9 -19,-15 -4,-6 -8,-13 -10,-21 -2,-8 -3,-16 -3,-26zm33 2c0,12 2,21 6,27 4,7 10,10 20,10 9,0 16,-3 20,-10 4,-6 6,-15 6,-27 0,-13 -2,-22 -6,-28 -5,-6 -12,-9 -21,-9 -3,0 -6,0 -8,1 -3,1 -5,2 -7,3 -2,1 -4,3 -6,4 -2,2 -3,4 -4,6 0,3 0,6 0,10 0,4 0,8 0,13z"/>
   <path id="4" class="fil6" d="M999 1055l34 0c1,6 2,12 5,19 2,6 6,13 9,21 4,8 8,15 13,23 4,8 9,16 15,25 4,-9 9,-18 13,-26 4,-9 8,-17 11,-24 3,-8 6,-15 8,-21 2,-7 4,-12 5,-17l34 0c-1,7 -4,16 -7,25 -3,10 -7,20 -12,31 -5,10 -10,21 -16,32 -6,12 -11,23 -17,33 -6,11 -12,21 -18,30 -5,10 -11,18 -15,25l-39 0c5,-7 10,-16 16,-26 6,-9 12,-20 19,-30 -7,-10 -14,-21 -20,-31 -6,-11 -12,-21 -18,-32 -5,-10 -9,-20 -13,-30 -4,-9 -6,-18 -7,-27z"/>
   <polygon id="5" class="fil6" points="1214,1231 1214,1055 1348,1055 1348,1231 1313,1231 1313,1086 1248,1086 1248,1231 "/>
   <path id="6" class="fil6" d="M1384 1231l0 -176 34 0 0 68c5,-1 10,-3 15,-6 6,-3 12,-7 18,-12 6,-6 11,-13 16,-21 6,-8 10,-18 14,-29l35 0c-2,10 -6,18 -10,26 -4,8 -8,15 -13,22 -5,7 -10,13 -15,18 -5,5 -10,10 -16,14 5,5 9,10 14,15 4,6 8,11 13,16 4,6 8,12 11,17 4,6 7,11 10,17 3,6 6,11 8,16 2,5 3,10 4,15l-36 0c-1,-5 -3,-11 -7,-17 -3,-7 -7,-14 -12,-21 -5,-7 -10,-14 -16,-21 -6,-7 -12,-14 -19,-20 -3,1 -5,1 -7,2 -2,0 -5,1 -7,1l0 76 -34 0z"/>
   <path id="7" class="fil6" d="M1612 1231l0 -127 32 0 0 67c1,-3 3,-6 5,-10 1,-3 4,-7 6,-11 2,-4 5,-8 7,-12 3,-4 6,-8 8,-12 3,-4 6,-8 9,-12 3,-3 5,-7 8,-10l29 0 0 127 -32 0 0 -76c-3,5 -7,11 -11,17 -3,6 -7,13 -11,19 -3,7 -7,14 -10,20 -4,7 -7,14 -10,20l-30 0z"/>
   <polygon id="8" class="fil6" points="1820,1231 1820,1055 1954,1055 1954,1231 1920,1231 1920,1086 1855,1086 1855,1231 "/>
   <polygon id="9" class="fil6" points="1990,1231 1990,1055 2124,1055 2124,1231 2090,1231 2090,1086 2024,1086 2024,1231 "/>
   <path id="10" class="fil6" d="M2146 1223l31 -55c-3,-4 -5,-9 -8,-14 -2,-4 -5,-9 -8,-14 -3,-5 -5,-10 -8,-15 -3,-5 -5,-9 -7,-13l33 0 35 56 -35 55 -33 0zm55 0l31 -55c-2,-4 -5,-9 -7,-14 -3,-4 -6,-9 -8,-14 -3,-5 -6,-10 -8,-15 -3,-5 -5,-9 -8,-13l34 0 34 56 -34 55 -34 0z"/>
   <path class="fil7" d="M1413 1788c-88,0 -160,72 -160,160 0,87 71,160 160,160 87,0 160,-72 160,-160 0,-89 -73,-160 -160,-160zm0 302c-78,0 -141,-64 -141,-142 0,-78 63,-141 141,-141 78,0 142,63 142,141 0,78 -64,142 -142,142z"/>
   <path class="fil7" d="M1427 1948l31 -31c4,-4 4,-10 0,-13 -4,-4 -10,-4 -13,0l-38 37c-3,4 -3,10 0,13l38 38c3,4 9,4 13,0 4,-4 4,-10 0,-13l-31 -31z"/>
   <path class="fil7" d="M1413 1826c-67,0 -122,55 -122,122 0,67 55,123 122,123 67,0 123,-56 123,-123 0,-67 -56,-122 -123,-122zm79 188l-5 -5c-4,-4 -10,-4 -13,0 -4,3 -4,9 0,13l5 6c-16,13 -36,22 -57,24l0 -9c0,-5 -4,-10 -9,-10 -6,0 -10,5 -10,10l0 9c-21,-2 -41,-11 -56,-24l6 -6c4,-4 4,-10 0,-13 -4,-4 -10,-4 -13,0l-6 6c-14,-16 -22,-36 -24,-58l9 0c5,0 9,-4 9,-9 0,-5 -4,-10 -9,-10l-9 0c2,-21 10,-40 23,-56l7 6c3,4 9,4 13,0 4,-3 4,-9 0,-13l-6 -6c15,-13 35,-22 56,-24l0 9c0,5 4,9 10,9 5,0 9,-4 9,-9l0 -9c22,2 42,11 58,24l-6 6c-6,6 -2,16 6,16 3,0 5,-1 7,-3l6 -6c13,16 22,35 24,56l-9 0c-6,0 -10,5 -10,10 0,5 4,9 10,9l9 0c-2,22 -11,41 -25,57z"/>
   <path class="fil7" d="M983 1889c-11,-11 -28,-11 -39,0 -4,4 -25,25 -29,28l0 -74c0,-7 -3,-14 -8,-20l-26 -26c-6,-6 -13,-9 -20,-9l-161 0c-16,0 -28,13 -28,29l0 263c0,16 12,28 28,28l187 0c16,0 28,-12 28,-28l0 -83 68 -68c11,-11 11,-29 0,-40zm-124 -82c2,0 5,0 8,3l27 26c3,3 3,7 3,9l-38 0 0 -38zm38 273c0,5 -5,10 -10,10l-187 0c-5,0 -10,-5 -10,-10l0 -263c0,-6 5,-10 10,-10l140 0 0 47c0,5 5,9 10,9l47 0 0 73c0,0 -28,28 -28,28l-13 13c-1,1 -2,2 -3,4l-13 40c-1,3 0,7 2,9 3,3 7,3 10,2l40 -13c1,0 2,-1 3,-2l2 -1 0 64zm-21 -96l13 13 -5 5 -20 7 7 -20 5 -5zm26 0l-13 -14c7,-7 38,-38 45,-45l13 14 -45 45zm68 -68l-10 9 -13 -13 10 -10c3,-3 9,-3 13,0 4,4 4,10 0,14z"/>
   <path class="fil7" d="M850 1882l-131 0c-6,0 -10,4 -10,10 0,5 4,9 10,9l131 0c5,0 9,-4 9,-9 0,-6 -4,-10 -9,-10z"/>
   <path class="fil7" d="M812 1920l-93 0c-6,0 -10,4 -10,9 0,5 4,9 10,9l93 0c5,0 10,-4 10,-9 0,-5 -5,-9 -10,-9z"/>
   <path class="fil7" d="M812 1957l-93 0c-6,0 -10,4 -10,10 0,5 4,9 10,9l93 0c5,0 10,-4 10,-9 0,-6 -5,-10 -10,-10z"/>
   <path class="fil7" d="M812 1995l-93 0c-6,0 -10,4 -10,9 0,5 4,9 10,9l93 0c5,0 10,-4 10,-9 0,-5 -5,-9 -10,-9z"/>
   <path class="fil7" d="M850 2052l-57 0c-5,0 -9,4 -9,10 0,5 4,9 9,9l57 0c5,0 9,-4 9,-9 0,-6 -4,-10 -9,-10z"/>
   <path class="fil7" d="M381 1940c0,-105 0,-99 0,-101 2,-5 -1,-11 -7,-13l-131 -37c-2,-1 -3,-1 -5,0l-131 37c-4,1 -7,5 -7,9 0,5 3,8 7,9l49 14c0,1 0,1 0,2 0,3 0,4 0,4 0,5 0,16 0,37 0,36 19,68 46,84l-5 10c-25,1 -49,12 -67,31 -19,19 -30,45 -30,73 0,5 4,9 9,9l263 0c5,0 9,-4 9,-9 0,-28 -10,-54 -30,-73 -18,-19 -42,-30 -67,-31l-5 -10c27,-16 46,-48 46,-84 0,-2 0,-42 0,-43l37 -10 0 92c-10,4 -18,14 -18,27l0 18c0,5 4,10 9,10l38 0c5,0 9,-5 9,-10l0 -18c0,-13 -8,-23 -19,-27zm-150 150l-112 0c5,-42 38,-74 79,-76l33 49 0 27zm-17 -87l6 -11c6,2 13,3 21,3 7,0 14,-1 20,-3l6 11 -26 40 -27 -40zm69 11c41,2 75,34 79,76l-112 0 0 -27 33 -49zm-42 -38c-32,0 -59,-26 -65,-60 20,8 42,13 65,13 22,0 44,-5 64,-13 -6,34 -33,60 -64,60zm65 -86c-1,3 -2,5 -4,6 -19,10 -40,14 -61,14 -22,0 -43,-4 -61,-14 -3,-1 -5,-5 -5,-8l0 -24c68,19 64,18 66,18 1,0 -3,1 65,-18 0,27 0,25 0,26zm-65 -27l-98 -28 98 -27 97 27 -97 28zm140 113l-19 0 0 -9c0,-6 5,-10 10,-10 5,0 9,4 9,10l0 9z"/>
   <polyline class="fil8 str0" points="3809,1873 3898,1948 3809,2024 "/>
   <line class="fil8 str1" x1="3582" y1="1948" x2="3887" y2= "1948" />
   <rect class="fil8 str2" x="2476" y="1788" width="200" height="320" rx="20" ry="22"/>
   <line class="fil8 str2" x1="2478" y1="1852" x2="2673" y2= "1852" />
   <line class="fil8 str2" x1="2478" y1="2022" x2="2673" y2= "2022" />
   <circle class="fil8 str2" cx="2576" cy="2063" r="17"/>
   <line class="fil8 str2" x1="2518" y1="1816" x2="2568" y2= "1816" />
   <line class="fil8 str2" x1="2587" y1="1816" x2="2608" y2= "1816" />
   <rect class="fil8 str2" x="1927" y="1789" width="135" height="170" rx="70" ry="62"/>
   <path class="fil7" d="M1952 1956l-5 10c-25,2 -44,17 -63,39 -19,25 -30,57 -30,91 0,7 4,12 10,12l262 0c5,0 9,-5 9,-12 0,-34 -10,-66 -30,-91 -18,-22 -37,-37 -63,-39l-5 -10 -85 0zm33 129l-111 0c4,-51 37,-91 78,-94l33 61 0 33zm-17 -107l6 -14c7,2 15,2 22,2 8,0 13,0 20,-2l6 14 -27 49 -27 -49zm69 13c41,3 75,43 79,94l-112 0 0 -33 33 -61z"/>
   <polyline class="fil8 str3" points="4825,1945 4883,2004 4981,1893 "/>
   <rect class="fil8 str4" x="3018" y="1848" width="280" height="200" rx="17" ry="17"/>
   <polyline class="fil8 str4" points="3018,1870 3158,1979 3298,1870 "/>
   <line class="fil8 str4" x1="3024" y1="2023" x2="3114" y2= "1935" />
   <line class="fil8 str4" x1="3292" y1="2023" x2="3203" y2= "1935" />
   <polyline class="fil8 str5" points="4252,1873 4163,1948 4252,2024 "/>
   <line class="fil8 str6" x1="4480" y1="1948" x2="4175" y2= "1948" />
  </g>
 </g>
</svg>
