<?xml version="1.0" encoding="UTF-8"?>
<!DOCTYPE svg PUBLIC "-//W3C//DTD SVG 1.1//EN" "http://www.w3.org/Graphics/SVG/1.1/DTD/svg11.dtd">
<!-- Creator: CorelDRAW X8 -->
<svg xmlns="http://www.w3.org/2000/svg" xml:space="preserve" width="1000px" height="1000px" version="1.1" style="shape-rendering:geometricPrecision; text-rendering:geometricPrecision; image-rendering:optimizeQuality; fill-rule:evenodd; clip-rule:evenodd"
viewBox="0 0 10000 10000"
 xmlns:xlink="http://www.w3.org/1999/xlink">
 <defs>
  <style type="text/css">
   <![CDATA[
    .str2 {stroke:#000082;stroke-width:20.8347}
    .str4 {stroke:#000082;stroke-width:20.8347}
    .str3 {stroke:#B40000;stroke-width:29.9882}
    .str6 {stroke:#646464;stroke-width:29.9882;stroke-linecap:round}
    .str1 {stroke:white;stroke-width:29.9882;stroke-linecap:round}
    .str5 {stroke:#646464;stroke-width:29.9882;stroke-linecap:round;stroke-linejoin:round}
    .str0 {stroke:white;stroke-width:29.9882;stroke-linecap:round;stroke-linejoin:round}
    .fil8 {fill:none}
    .fil7 {fill:#000082}
    .fil1 {fill:blue}
    .fil4 {fill:#4F4FFF}
    .fil2 {fill:#D90000}
    .fil0 {fill:#E6E6E6}
    .fil3 {fill:#FF1212}
    .fil5 {fill:white}
    .fil6 {fill:white;fill-rule:nonzero}
   ]]>
  </style>
 </defs>
 <g id="Слой_x0020_1">
  <metadata id="CorelCorpID_0Corel-Layer"/>
  <g id="_1443529502096">
   <path class="fil0" d="M353 100l-1 0c-139,0 -252,134 -252,297l0 121c0,-163 113,-297 252,-297l1 0 0 -121z"/>
   <path class="fil1" d="M353 220l-1 0c-139,0 -252,134 -252,297l0 121c0,-164 113,-297 252,-297l1 0 0 -121z"/>
   <path class="fil2" d="M353 337c-139,0 -252,134 -252,298l0 120c0,-163 113,-297 252,-297l0 -121z"/>
   <rect class="fil3" x="353" y="338" width="234" height="120"/>
   <rect class="fil4" x="353" y="218" width="234" height="120"/>
   <rect class="fil5" x="353" y="100" width="234" height="120"/>
   <path class="fil6" d="M349 730c1,-6 3,-12 4,-18 2,-6 4,-12 6,-19 3,-7 5,-14 8,-21 2,-7 5,-14 7,-21 3,-7 6,-13 8,-19 3,-6 6,-11 8,-16l22 0c2,5 5,10 8,16 3,6 5,12 8,19 3,7 5,14 8,21 2,7 5,14 7,21 2,7 4,13 6,19 1,6 3,12 4,18l-14 0c-1,-4 -2,-7 -3,-11 -1,-4 -2,-8 -4,-13 -1,-5 -3,-9 -4,-14 -2,-5 -3,-10 -5,-15l-38 0c0,0 0,-1 0,-2 1,0 1,-1 1,-2 1,-1 1,-2 1,-3 1,-1 1,-2 2,-3 0,-1 0,-2 0,-3 1,0 1,-1 1,-1l28 0c-3,-6 -5,-12 -7,-18 -3,-5 -5,-11 -8,-16l-4 0c-2,5 -5,11 -7,17 -3,5 -5,11 -8,17 -2,7 -4,13 -6,19 -2,6 -4,12 -6,18 -2,6 -4,11 -5,16 -1,5 -2,10 -3,14l-15 0z"/>
   <polygon id="1" class="fil6" points="465,730 465,616 479,616 479,663 536,663 536,616 551,616 551,730 536,730 536,677 479,677 479,730 "/>
   <path id="2" class="fil6" d="M569 673c0,-8 1,-16 3,-23 2,-7 4,-14 8,-19 4,-5 10,-9 16,-12 6,-3 14,-5 23,-5 10,0 17,2 24,5 6,3 11,7 15,12 4,5 7,12 9,19 2,7 3,15 3,23 0,8 -1,16 -3,23 -2,7 -5,13 -9,18 -4,6 -9,10 -15,13 -7,3 -14,4 -24,4 -9,0 -17,-1 -23,-4 -6,-3 -12,-7 -16,-13 -4,-5 -6,-11 -8,-18 -2,-7 -3,-15 -3,-23zm15 0c0,7 1,14 2,20 1,5 4,10 6,14 3,4 7,7 11,9 5,2 10,3 16,3 7,0 12,-1 16,-3 5,-2 8,-5 11,-9 3,-4 5,-9 7,-14 1,-6 2,-13 2,-20 0,-8 -1,-14 -2,-20 -2,-6 -4,-11 -7,-15 -3,-4 -6,-7 -11,-9 -4,-2 -9,-3 -16,-3 -6,0 -11,1 -16,3 -4,2 -8,5 -11,9 -2,4 -5,9 -6,15 -1,6 -2,12 -2,20z"/>
   <path id="3" class="fil6" d="M716 716l12 0c2,-3 5,-7 7,-12 2,-5 4,-12 5,-20 2,-8 3,-18 4,-29 1,-11 1,-24 1,-39l67 0 0 100 14 0 0 32 -15 0 0 -18 -81 0 0 18 -14 0 0 -32zm29 0l53 0 0 -87 -38 0c-1,21 -2,39 -5,53 -2,15 -6,26 -10,34z"/>
   <polygon id="4" class="fil6" points="839,730 839,616 922,616 922,730 908,730 908,629 853,629 853,730 "/>
   <path id="5" class="fil6" d="M941 673c0,-8 1,-16 3,-23 1,-7 4,-14 8,-19 4,-5 9,-9 16,-12 6,-3 14,-5 23,-5 9,0 17,2 23,5 7,3 12,7 16,12 4,5 7,12 9,19 1,7 2,15 2,23 0,8 -1,16 -2,23 -2,7 -5,13 -9,18 -4,6 -9,10 -16,13 -6,3 -14,4 -23,4 -9,0 -17,-1 -23,-4 -7,-3 -12,-7 -16,-13 -4,-5 -7,-11 -8,-18 -2,-7 -3,-15 -3,-23zm15 0c0,7 1,14 2,20 1,5 3,10 6,14 3,4 6,7 11,9 4,2 10,3 16,3 6,0 12,-1 16,-3 4,-2 8,-5 11,-9 3,-4 5,-9 6,-14 2,-6 2,-13 2,-20 0,-8 0,-14 -2,-20 -1,-6 -3,-11 -6,-15 -3,-4 -7,-7 -11,-9 -4,-2 -10,-3 -16,-3 -6,0 -12,1 -16,3 -5,2 -8,5 -11,9 -3,4 -5,9 -6,15 -1,6 -2,12 -2,20z"/>
   <path class="fil6" d="M349 957l28 44 27 0 -25 -44c2,-4 4,-7 6,-11 2,-4 4,-8 6,-12 3,-4 5,-8 7,-12 2,-3 4,-7 6,-10l-27 0 -28 45zm45 0l27 44 27 0 -25 -44c2,-4 4,-7 6,-11 3,-4 5,-8 7,-12 2,-4 4,-8 6,-12 2,-3 4,-7 6,-10l-27 0 -27 45z"/>
   <path id="1" class="fil6" d="M458 937c0,-11 1,-21 3,-29 3,-9 7,-17 12,-24 6,-6 13,-11 21,-15 9,-3 19,-5 30,-5 8,0 15,0 22,1 6,1 12,2 17,3l0 27c-4,-1 -7,-2 -10,-3 -3,0 -6,-1 -9,-1 -3,-1 -7,-1 -10,-2 -3,0 -6,0 -10,0 -12,0 -22,4 -28,12 -7,7 -10,19 -10,36 0,8 1,16 2,22 2,6 5,11 8,15 3,3 7,6 12,8 5,2 10,3 17,3 5,0 11,-1 17,-2 6,0 13,-2 21,-4l0 27c-5,1 -11,2 -17,3 -6,0 -13,1 -21,1 -12,0 -22,-2 -30,-5 -9,-3 -16,-8 -21,-14 -6,-6 -10,-14 -12,-23 -3,-9 -4,-19 -4,-31z"/>
   <polygon id="2" class="fil6" points="587,1007 587,866 694,866 694,1007 666,1007 666,891 614,891 614,1007 "/>
   <path id="3" class="fil6" d="M716 956c0,-9 0,-18 1,-26 0,-9 1,-17 3,-24 1,-7 4,-13 7,-19 4,-5 9,-10 15,-13 3,-2 6,-3 9,-4 3,-1 5,-2 8,-2 3,-1 6,-1 8,-1 3,0 6,-1 10,-1 3,0 7,0 11,-1 4,0 8,-1 13,-2l0 22c-4,2 -8,3 -12,3 -4,0 -8,1 -12,1 -4,0 -8,0 -12,1 -3,1 -6,2 -9,3 -2,2 -4,3 -6,6 -2,2 -3,5 -3,8 -1,1 -1,1 -1,2 0,1 0,1 0,2 3,-2 6,-3 9,-4 4,-1 8,-2 13,-2 3,0 6,0 10,1 3,1 6,2 9,4 3,1 6,3 9,6 3,3 5,6 8,10 2,3 3,8 4,13 2,5 2,11 2,18 0,7 -1,14 -2,21 -2,6 -5,12 -8,16 -4,5 -9,9 -15,12 -6,2 -13,4 -22,4 -8,0 -16,-2 -22,-5 -6,-2 -10,-6 -14,-11 -4,-5 -7,-10 -8,-17 -2,-6 -3,-13 -3,-21zm26 1c0,10 2,17 5,22 3,6 9,8 16,8 8,0 13,-2 16,-8 4,-5 5,-12 5,-22 0,-10 -1,-17 -5,-22 -3,-5 -9,-7 -16,-7 -3,0 -5,0 -7,0 -2,1 -4,2 -6,3 -1,1 -3,2 -4,4 -2,1 -3,3 -4,4 0,2 0,5 0,8 0,3 0,7 0,10z"/>
   <path id="4" class="fil6" d="M821 866l27 0c1,5 2,10 4,15 2,5 5,11 8,17 3,6 6,12 10,19 4,6 8,13 12,19 3,-7 7,-13 10,-20 4,-7 7,-13 9,-20 3,-6 5,-11 7,-16 2,-6 3,-10 3,-14l28 0c-1,6 -3,13 -5,20 -3,8 -6,16 -10,25 -4,8 -8,17 -13,26 -4,9 -9,18 -14,26 -5,9 -9,17 -14,25 -5,7 -9,14 -12,19l-31 0c4,-6 8,-12 13,-20 4,-8 9,-16 14,-25 -5,-8 -10,-16 -15,-25 -6,-8 -10,-17 -14,-25 -5,-8 -8,-16 -11,-24 -3,-8 -5,-15 -6,-22z"/>
   <polygon id="5" class="fil6" points="994,1007 994,866 1101,866 1101,1007 1073,1007 1073,891 1021,891 1021,1007 "/>
   <path id="6" class="fil6" d="M1130 1007l0 -141 28 0 0 55c3,-1 7,-2 12,-5 4,-2 9,-6 14,-10 4,-4 9,-10 13,-16 4,-7 8,-15 11,-24l28 0c-2,8 -5,15 -8,21 -3,6 -7,12 -10,18 -4,5 -8,10 -13,14 -4,4 -8,8 -12,11 3,4 7,8 10,13 4,4 8,8 11,13 3,4 6,8 9,13 3,4 6,9 8,13 2,5 4,9 6,13 2,5 3,9 4,12l-29 0c-1,-4 -3,-9 -6,-14 -2,-5 -6,-10 -9,-16 -4,-5 -9,-11 -13,-17 -5,-6 -10,-11 -16,-16 -2,0 -3,1 -5,1 -2,1 -4,1 -5,1l0 61 -28 0z"/>
   <path id="7" class="fil6" d="M1313 1007l0 -102 26 0 0 54c1,-2 2,-5 3,-8 2,-3 3,-5 5,-9 2,-3 4,-6 6,-9 2,-3 4,-7 7,-10 2,-3 4,-6 6,-9 3,-3 5,-6 7,-9l23 0 0 102 -25 0 0 -61c-3,5 -6,9 -9,14 -3,5 -6,10 -9,15 -3,6 -6,11 -8,16 -3,6 -6,11 -8,16l-24 0z"/>
   <polygon id="8" class="fil6" points="1480,1007 1480,866 1587,866 1587,1007 1560,1007 1560,891 1507,891 1507,1007 "/>
   <polygon id="9" class="fil6" points="1616,1007 1616,866 1723,866 1723,1007 1696,1007 1696,891 1644,891 1644,1007 "/>
   <path id="10" class="fil6" d="M1741 1001l25 -44c-2,-4 -4,-7 -6,-11 -2,-4 -5,-8 -7,-12 -2,-4 -4,-8 -6,-12 -2,-3 -4,-7 -6,-10l27 0 27 45 -27 44 -27 0zm45 0l24 -44c-2,-4 -4,-7 -6,-11 -2,-4 -4,-8 -6,-12 -2,-4 -5,-8 -7,-12 -2,-3 -4,-7 -5,-10l26 0 28 45 -28 44 -26 0z"/>
  </g>
  <path class="fil7" d="M1413 1788c-88,0 -160,72 -160,160 0,87 71,160 160,160 87,0 160,-72 160,-160 0,-89 -73,-160 -160,-160zm0 302c-78,0 -141,-64 -141,-142 0,-78 63,-141 141,-141 78,0 142,63 142,141 0,78 -64,142 -142,142z"/>
  <path class="fil7" d="M1427 1948l31 -31c4,-4 4,-10 0,-13 -4,-4 -10,-4 -13,0l-38 37c-3,4 -3,10 0,13l38 38c3,4 9,4 13,0 4,-4 4,-10 0,-13l-31 -31z"/>
  <path class="fil7" d="M1413 1826c-67,0 -122,55 -122,122 0,67 55,123 122,123 67,0 123,-56 123,-123 0,-67 -56,-122 -123,-122zm79 188l-5 -5c-4,-4 -10,-4 -13,0 -4,3 -4,9 0,13l5 6c-16,13 -36,22 -57,24l0 -9c0,-5 -4,-10 -9,-10 -6,0 -10,5 -10,10l0 9c-21,-2 -41,-11 -56,-24l6 -6c4,-4 4,-10 0,-13 -4,-4 -10,-4 -13,0l-6 6c-14,-16 -22,-36 -24,-58l9 0c5,0 9,-4 9,-9 0,-5 -4,-10 -9,-10l-9 0c2,-21 10,-40 23,-56l7 6c3,4 9,4 13,0 4,-3 4,-9 0,-13l-6 -6c15,-13 35,-22 56,-24l0 9c0,5 4,9 10,9 5,0 9,-4 9,-9l0 -9c22,2 42,11 58,24l-6 6c-6,6 -2,16 6,16 3,0 5,-1 7,-3l6 -6c13,16 22,35 24,56l-9 0c-6,0 -10,5 -10,10 0,5 4,9 10,9l9 0c-2,22 -11,41 -25,57z"/>
  <path class="fil7" d="M983 1889c-11,-11 -28,-11 -39,0 -4,4 -25,25 -29,28l0 -74c0,-7 -3,-14 -8,-20l-26 -26c-6,-6 -13,-9 -20,-9l-161 0c-16,0 -28,13 -28,29l0 263c0,16 12,28 28,28l187 0c16,0 28,-12 28,-28l0 -83 68 -68c11,-11 11,-29 0,-40zm-124 -82c2,0 5,0 8,3l27 26c3,3 3,7 3,9l-38 0 0 -38zm38 273c0,5 -5,10 -10,10l-187 0c-5,0 -10,-5 -10,-10l0 -263c0,-6 5,-10 10,-10l140 0 0 47c0,5 5,9 10,9l47 0 0 73c0,0 -28,28 -28,28l-13 13c-1,1 -2,2 -3,4l-13 40c-1,3 0,7 2,9 3,3 7,3 10,2l40 -13c1,0 2,-1 3,-2l2 -1 0 64zm-21 -96l13 13 -5 5 -20 7 7 -20 5 -5zm26 0l-13 -14c7,-7 38,-38 45,-45l13 14 -45 45zm68 -68l-10 9 -13 -13 10 -10c3,-3 9,-3 13,0 4,4 4,10 0,14z"/>
  <path class="fil7" d="M850 1882l-131 0c-6,0 -10,4 -10,10 0,5 4,9 10,9l131 0c5,0 9,-4 9,-9 0,-6 -4,-10 -9,-10z"/>
  <path class="fil7" d="M812 1920l-93 0c-6,0 -10,4 -10,9 0,5 4,9 10,9l93 0c5,0 10,-4 10,-9 0,-5 -5,-9 -10,-9z"/>
  <path class="fil7" d="M812 1957l-93 0c-6,0 -10,4 -10,10 0,5 4,9 10,9l93 0c5,0 10,-4 10,-9 0,-6 -5,-10 -10,-10z"/>
  <path class="fil7" d="M812 1995l-93 0c-6,0 -10,4 -10,9 0,5 4,9 10,9l93 0c5,0 10,-4 10,-9 0,-5 -5,-9 -10,-9z"/>
  <path class="fil7" d="M850 2052l-57 0c-5,0 -9,4 -9,10 0,5 4,9 9,9l57 0c5,0 9,-4 9,-9 0,-6 -4,-10 -9,-10z"/>
  <path class="fil7" d="M381 1940c0,-105 0,-99 0,-101 2,-5 -1,-11 -7,-13l-131 -37c-2,-1 -3,-1 -5,0l-131 37c-4,1 -7,5 -7,9 0,5 3,8 7,9l49 14c0,1 0,1 0,2 0,3 0,4 0,4 0,5 0,16 0,37 0,36 19,68 46,84l-5 10c-25,1 -49,12 -67,31 -19,19 -30,45 -30,73 0,5 4,9 9,9l263 0c5,0 9,-4 9,-9 0,-28 -10,-54 -30,-73 -18,-19 -42,-30 -67,-31l-5 -10c27,-16 46,-48 46,-84 0,-2 0,-42 0,-43l37 -10 0 92c-10,4 -18,14 -18,27l0 18c0,5 4,10 9,10l38 0c5,0 9,-5 9,-10l0 -18c0,-13 -8,-23 -19,-27zm-150 150l-112 0c5,-42 38,-74 79,-76l33 49 0 27zm-17 -87l6 -11c6,2 13,3 21,3 7,0 14,-1 20,-3l6 11 -26 40 -27 -40zm69 11c41,2 75,34 79,76l-112 0 0 -27 33 -49zm-42 -38c-32,0 -59,-26 -65,-60 20,8 42,13 65,13 22,0 44,-5 64,-13 -6,34 -33,60 -64,60zm65 -86c-1,3 -2,5 -4,6 -19,10 -40,14 -61,14 -22,0 -43,-4 -61,-14 -3,-1 -5,-5 -5,-8l0 -24c68,19 64,18 66,18 1,0 -3,1 65,-18 0,27 0,25 0,26zm-65 -27l-98 -28 98 -27 97 27 -97 28zm140 113l-19 0 0 -9c0,-6 5,-10 10,-10 5,0 9,4 9,10l0 9z"/>
  <polyline class="fil8 str0" points="3809,1873 3898,1948 3809,2024 "/>
  <line class="fil8 str1" x1="3582" y1="1948" x2="3887" y2= "1948" />
  <rect class="fil8 str2" x="2476" y="1788" width="200" height="320" rx="20" ry="22"/>
  <line class="fil8 str2" x1="2478" y1="1852" x2="2673" y2= "1852" />
  <line class="fil8 str2" x1="2478" y1="2022" x2="2673" y2= "2022" />
  <circle class="fil8 str2" cx="2576" cy="2063" r="17"/>
  <line class="fil8 str2" x1="2518" y1="1816" x2="2568" y2= "1816" />
  <line class="fil8 str2" x1="2587" y1="1816" x2="2608" y2= "1816" />
  <rect class="fil8 str2" x="1927" y="1789" width="135" height="170" rx="70" ry="62"/>
  <path class="fil7" d="M1952 1956l-5 10c-25,2 -44,17 -63,39 -19,25 -30,57 -30,91 0,7 4,12 10,12l262 0c5,0 9,-5 9,-12 0,-34 -10,-66 -30,-91 -18,-22 -37,-37 -63,-39l-5 -10 -85 0zm33 129l-111 0c4,-51 37,-91 78,-94l33 61 0 33zm-17 -107l6 -14c7,2 15,2 22,2 8,0 13,0 20,-2l6 14 -27 49 -27 -49zm69 13c41,3 75,43 79,94l-112 0 0 -33 33 -61z"/>
  <polyline class="fil8 str3" points="4825,1945 4883,2004 4981,1893 "/>
  <rect class="fil8 str4" x="3018" y="1848" width="280" height="200" rx="17" ry="17"/>
  <polyline class="fil8 str4" points="3018,1870 3158,1979 3298,1870 "/>
  <line class="fil8 str4" x1="3024" y1="2023" x2="3114" y2= "1935" />
  <line class="fil8 str4" x1="3292" y1="2023" x2="3203" y2= "1935" />
  <polyline class="fil8 str5" points="4252,1873 4163,1948 4252,2024 "/>
  <line class="fil8 str6" x1="4480" y1="1948" x2="4175" y2= "1948" />
 </g>
</svg>
